<svg width="400" height="100" viewBox="0 0 400 100" fill="none" xmlns="http://www.w3.org/2000/svg">
<path d="M145.2 38.12C146.853 38.12 148.24 38.3467 149.36 38.8C150.507 39.2533 151.627 39.8933 152.72 40.72C153.04 40.96 153.307 41.08 153.52 41.08C153.787 41.08 154 40.8933 154.16 40.52C154.32 40.12 154.44 39.5067 154.52 38.68H155.44C155.333 40.4933 155.28 43.72 155.28 48.36H154.36C154.147 46.5467 153.827 45.08 153.4 43.96C153 42.84 152.32 41.8933 151.36 41.12C150.72 40.5067 149.933 40.0267 149 39.68C148.067 39.3333 147.107 39.16 146.12 39.16C144.253 39.16 142.693 39.8 141.44 41.08C140.213 42.3333 139.307 44 138.72 46.08C138.133 48.16 137.84 50.44 137.84 52.92C137.84 62.1467 140.4 66.76 145.52 66.76C146.693 66.76 147.64 66.4933 148.36 65.96C148.707 65.72 148.947 65.44 149.08 65.12C149.24 64.8 149.32 64.3867 149.32 63.88V59.96C149.32 58.7067 149.213 57.8 149 57.24C148.787 56.6533 148.4 56.2533 147.84 56.04C147.307 55.8267 146.453 55.6933 145.28 55.64V54.84C146.933 54.92 149.213 54.96 152.12 54.96C154.493 54.96 156.28 54.92 157.48 54.84V55.64C156.947 55.6933 156.56 55.8 156.32 55.96C156.08 56.12 155.907 56.4267 155.8 56.88C155.72 57.3333 155.68 58.0667 155.68 59.08V67H154.88C154.853 66.44 154.733 65.92 154.52 65.44C154.333 64.96 154.067 64.72 153.72 64.72C153.267 64.72 152.547 65 151.56 65.56C149.24 66.8933 147.053 67.56 145 67.56C140.387 67.56 136.853 66.3067 134.4 63.8C131.947 61.2667 130.72 57.72 130.72 53.16C130.72 50.1733 131.333 47.5467 132.56 45.28C133.813 43.0133 135.533 41.2533 137.72 40C139.907 38.7467 142.4 38.12 145.2 38.12ZM173.134 45.76C174.334 45.76 175.241 46.12 175.854 46.84C176.467 47.56 176.774 48.4267 176.774 49.44C176.774 50.4267 176.481 51.24 175.894 51.88C175.334 52.4933 174.587 52.8 173.654 52.8C172.747 52.8 172.027 52.5733 171.494 52.12C170.961 51.64 170.694 51.0133 170.694 50.24C170.694 48.96 171.281 47.92 172.454 47.12C172.347 47.0933 172.187 47.08 171.974 47.08C171.707 47.08 171.494 47.1067 171.334 47.16C170.321 47.32 169.454 47.9333 168.734 49C168.041 50.0667 167.694 51.16 167.694 52.28V62.88C167.694 64.1067 167.987 64.96 168.574 65.44C169.187 65.92 170.147 66.16 171.454 66.16V67C171.081 67 170.774 66.9867 170.534 66.96C167.814 66.88 166.001 66.84 165.094 66.84C164.374 66.84 162.734 66.88 160.174 66.96C159.961 66.9867 159.694 67 159.374 67V66.16C160.334 66.16 161.001 65.96 161.374 65.56C161.747 65.1333 161.934 64.3733 161.934 63.28V50.68C161.934 49.4533 161.747 48.56 161.374 48C161.001 47.44 160.334 47.16 159.374 47.16V46.32C160.227 46.4 161.054 46.44 161.854 46.44C164.227 46.44 166.174 46.2533 167.694 45.88V49.6C168.201 48.4533 168.934 47.5333 169.894 46.84C170.854 46.12 171.934 45.76 173.134 45.76ZM183.326 67.28C181.619 67.28 180.339 66.84 179.486 65.96C178.659 65.08 178.246 63.92 178.246 62.48C178.246 61.28 178.553 60.2933 179.166 59.52C179.806 58.72 180.566 58.1067 181.446 57.68C182.353 57.2533 183.499 56.8 184.886 56.32C186.353 55.8133 187.419 55.36 188.086 54.96C188.779 54.5333 189.126 53.96 189.126 53.24V50.12C189.126 49 188.859 48.1333 188.326 47.52C187.819 46.88 187.019 46.56 185.926 46.56C184.646 46.56 183.673 46.88 183.006 47.52C183.753 47.7867 184.326 48.1867 184.726 48.72C185.153 49.2533 185.366 49.88 185.366 50.6C185.366 51.5067 185.059 52.2267 184.446 52.76C183.833 53.2933 183.086 53.56 182.206 53.56C181.273 53.56 180.553 53.2667 180.046 52.68C179.539 52.0933 179.286 51.36 179.286 50.48C179.286 49.7333 179.459 49.1067 179.806 48.6C180.179 48.0667 180.739 47.5733 181.486 47.12C182.206 46.6933 183.086 46.36 184.126 46.12C185.193 45.88 186.353 45.76 187.606 45.76C188.913 45.76 190.046 45.8933 191.006 46.16C191.966 46.4267 192.766 46.88 193.406 47.52C193.993 48.1067 194.379 48.8267 194.566 49.68C194.779 50.5333 194.886 51.6933 194.886 53.16V64.04C194.886 64.68 194.939 65.1333 195.046 65.4C195.179 65.6667 195.419 65.8 195.766 65.8C196.166 65.8 196.646 65.5733 197.206 65.12L197.606 65.8C196.406 66.7867 194.939 67.28 193.206 67.28C191.739 67.28 190.713 66.9867 190.126 66.4C189.539 65.8133 189.233 65.0267 189.206 64.04C187.873 66.2 185.913 67.28 183.326 67.28ZM186.406 64.72C187.446 64.72 188.353 64.1733 189.126 63.08V54.88C188.806 55.4133 188.126 56 187.086 56.64C186.046 57.3067 185.259 57.9733 184.726 58.64C184.193 59.3067 183.926 60.2667 183.926 61.52C183.926 62.6133 184.153 63.4267 184.606 63.96C185.059 64.4667 185.659 64.72 186.406 64.72ZM213.629 45.76C215.656 45.76 217.122 46.28 218.029 47.32C218.482 47.8267 218.802 48.48 218.989 49.28C219.176 50.08 219.269 51.16 219.269 52.52V63.28C219.269 64.3733 219.456 65.1333 219.829 65.56C220.229 65.96 220.896 66.16 221.829 66.16V67C219.162 66.8933 217.402 66.84 216.549 66.84C215.749 66.84 214.016 66.8933 211.349 67V66.16C212.149 66.16 212.709 65.96 213.029 65.56C213.349 65.1333 213.509 64.3733 213.509 63.28V50.84C213.509 49.7467 213.322 48.92 212.949 48.36C212.602 47.8 211.962 47.52 211.029 47.52C209.936 47.52 209.002 47.9733 208.229 48.88C207.456 49.76 207.069 50.8533 207.069 52.16V63.28C207.069 64.3733 207.229 65.1333 207.549 65.56C207.869 65.96 208.429 66.16 209.229 66.16V67C206.776 66.8933 205.122 66.84 204.269 66.84C203.469 66.84 201.629 66.8933 198.749 67V66.16C199.709 66.16 200.376 65.96 200.749 65.56C201.122 65.1333 201.309 64.3733 201.309 63.28V50.68C201.309 49.4533 201.122 48.56 200.749 48C200.376 47.44 199.709 47.16 198.749 47.16V46.32C199.602 46.4 200.429 46.44 201.229 46.44C203.602 46.44 205.549 46.2533 207.069 45.88V49.48C208.269 47 210.456 45.76 213.629 45.76ZM238.199 45.76C240.226 45.76 241.693 46.28 242.599 47.32C243.053 47.8267 243.373 48.48 243.559 49.28C243.746 50.08 243.839 51.16 243.839 52.52V63.28C243.839 64.3733 244.026 65.1333 244.399 65.56C244.799 65.96 245.466 66.16 246.399 66.16V67C243.733 66.8933 241.973 66.84 241.119 66.84C240.319 66.84 238.586 66.8933 235.919 67V66.16C236.719 66.16 237.279 65.96 237.599 65.56C237.919 65.1333 238.079 64.3733 238.079 63.28V50.84C238.079 49.7467 237.893 48.92 237.519 48.36C237.173 47.8 236.533 47.52 235.599 47.52C234.506 47.52 233.573 47.9733 232.799 48.88C232.026 49.76 231.639 50.8533 231.639 52.16V63.28C231.639 64.3733 231.799 65.1333 232.119 65.56C232.439 65.96 232.999 66.16 233.799 66.16V67C231.346 66.8933 229.693 66.84 228.839 66.84C228.039 66.84 226.199 66.8933 223.319 67V66.16C224.279 66.16 224.946 65.96 225.319 65.56C225.693 65.1333 225.879 64.3733 225.879 63.28V50.68C225.879 49.4533 225.693 48.56 225.319 48C224.946 47.44 224.279 47.16 223.319 47.16V46.32C224.173 46.4 224.999 46.44 225.799 46.44C228.173 46.44 230.119 46.2533 231.639 45.88V49.48C232.839 47 235.026 45.76 238.199 45.76ZM255.81 45.76C256.823 45.76 257.756 45.8933 258.61 46.16C259.463 46.4 260.116 46.68 260.57 47C260.836 47.1867 261.076 47.28 261.29 47.28C261.53 47.28 261.73 47.16 261.89 46.92C262.076 46.6533 262.196 46.28 262.25 45.8H263.09C262.983 47.16 262.93 49.5067 262.93 52.84H262.09C261.85 51.08 261.316 49.6133 260.49 48.44C259.69 47.24 258.516 46.64 256.97 46.64C256.17 46.64 255.503 46.8667 254.97 47.32C254.463 47.7733 254.21 48.4 254.21 49.2C254.21 50.1067 254.516 50.8933 255.13 51.56C255.743 52.2 256.703 52.9867 258.01 53.92L259.17 54.76C260.796 55.9867 261.996 57.08 262.77 58.04C263.543 59 263.93 60.2 263.93 61.64C263.93 62.8133 263.583 63.8533 262.89 64.76C262.223 65.6667 261.316 66.36 260.17 66.84C259.023 67.32 257.756 67.56 256.37 67.56C254.903 67.56 253.65 67.28 252.61 66.72C251.756 66.2933 251.143 66.0133 250.77 65.88C250.503 65.8 250.263 65.8933 250.05 66.16C249.863 66.4 249.716 66.7733 249.61 67.28H248.77C248.876 65.76 248.93 63.0933 248.93 59.28H249.77C250.303 64.1867 252.103 66.64 255.17 66.64C255.943 66.64 256.596 66.4133 257.13 65.96C257.69 65.48 257.97 64.76 257.97 63.8C257.97 63.0533 257.796 62.3867 257.45 61.8C257.13 61.2133 256.716 60.6933 256.21 60.24C255.703 59.7867 254.943 59.16 253.93 58.36C252.73 57.4 251.81 56.6267 251.17 56.04C250.556 55.4533 250.023 54.76 249.57 53.96C249.143 53.16 248.93 52.2667 248.93 51.28C248.93 49.5733 249.596 48.2267 250.93 47.24C252.263 46.2533 253.89 45.76 255.81 45.76ZM286.686 64.08C287.113 64.72 287.46 65.2 287.726 65.52C287.993 65.8133 288.34 66.0267 288.766 66.16V67C286.633 66.8933 285.233 66.84 284.566 66.84C283.686 66.84 281.966 66.8933 279.406 67V66.16C279.78 66.16 280.073 66.0933 280.286 65.96C280.5 65.8267 280.606 65.64 280.606 65.4C280.606 65.2667 280.54 65.0667 280.406 64.8L276.446 57.64C276.18 57.1867 275.9 56.88 275.606 56.72C275.313 56.56 274.94 56.4533 274.486 56.4V63.28C274.486 64.3733 274.66 65.1333 275.006 65.56C275.353 65.96 275.98 66.16 276.886 66.16V67C274.22 66.8933 272.486 66.84 271.686 66.84C270.78 66.84 268.94 66.8933 266.166 67V66.16C267.1 66.16 267.753 65.96 268.126 65.56C268.526 65.1333 268.726 64.3733 268.726 63.28V40.48C268.726 39.2533 268.526 38.36 268.126 37.8C267.753 37.24 267.1 36.96 266.166 36.96V36.12C267.02 36.2 267.846 36.24 268.646 36.24C270.966 36.24 272.913 36.0533 274.486 35.68V55.64C275.02 55.5867 275.473 55.48 275.846 55.32C276.246 55.16 276.593 54.92 276.886 54.6L279.926 51.64C280.806 50.76 281.246 49.9467 281.246 49.2C281.246 48.5867 280.966 48.1067 280.406 47.76C279.846 47.3867 279.1 47.1733 278.166 47.12V46.32C279.633 46.4 281.193 46.44 282.846 46.44C285.06 46.44 286.62 46.4 287.526 46.32V47.12C285.953 47.4667 284.286 48.4933 282.526 50.2L279.966 52.84L286.686 64.08ZM294.888 67.28C293.182 67.28 291.902 66.84 291.048 65.96C290.222 65.08 289.808 63.92 289.808 62.48C289.808 61.28 290.115 60.2933 290.728 59.52C291.368 58.72 292.128 58.1067 293.008 57.68C293.915 57.2533 295.062 56.8 296.448 56.32C297.915 55.8133 298.982 55.36 299.648 54.96C300.342 54.5333 300.688 53.96 300.688 53.24V50.12C300.688 49 300.422 48.1333 299.888 47.52C299.382 46.88 298.582 46.56 297.488 46.56C296.208 46.56 295.235 46.88 294.568 47.52C295.315 47.7867 295.888 48.1867 296.288 48.72C296.715 49.2533 296.928 49.88 296.928 50.6C296.928 51.5067 296.622 52.2267 296.008 52.76C295.395 53.2933 294.648 53.56 293.768 53.56C292.835 53.56 292.115 53.2667 291.608 52.68C291.102 52.0933 290.848 51.36 290.848 50.48C290.848 49.7333 291.022 49.1067 291.368 48.6C291.742 48.0667 292.302 47.5733 293.048 47.12C293.768 46.6933 294.648 46.36 295.688 46.12C296.755 45.88 297.915 45.76 299.168 45.76C300.475 45.76 301.608 45.8933 302.568 46.16C303.528 46.4267 304.328 46.88 304.968 47.52C305.555 48.1067 305.942 48.8267 306.128 49.68C306.342 50.5333 306.448 51.6933 306.448 53.16V64.04C306.448 64.68 306.502 65.1333 306.608 65.4C306.742 65.6667 306.982 65.8 307.328 65.8C307.728 65.8 308.208 65.5733 308.768 65.12L309.168 65.8C307.968 66.7867 306.502 67.28 304.768 67.28C303.302 67.28 302.275 66.9867 301.688 66.4C301.102 65.8133 300.795 65.0267 300.768 64.04C299.435 66.2 297.475 67.28 294.888 67.28ZM297.968 64.72C299.008 64.72 299.915 64.1733 300.688 63.08V54.88C300.368 55.4133 299.688 56 298.648 56.64C297.608 57.3067 296.822 57.9733 296.288 58.64C295.755 59.3067 295.488 60.2667 295.488 61.52C295.488 62.6133 295.715 63.4267 296.168 63.96C296.622 64.4667 297.222 64.72 297.968 64.72ZM324.672 45.76C326.058 45.76 327.285 46.1333 328.352 46.88C329.445 47.6267 330.298 48.7467 330.912 50.24C331.525 51.7333 331.832 53.56 331.832 55.72C331.832 59.5333 330.992 62.4667 329.312 64.52C327.658 66.5467 325.405 67.56 322.552 67.56C321.752 67.56 320.992 67.4533 320.272 67.24C319.578 67.0267 318.978 66.7067 318.472 66.28V70.28C318.472 71.4533 318.765 72.2667 319.352 72.72C319.938 73.1733 320.845 73.4 322.072 73.4V74.24L320.992 74.2C318.032 74.12 316.152 74.08 315.352 74.08C314.552 74.08 312.872 74.1333 310.312 74.24V73.4C311.192 73.4 311.805 73.2 312.152 72.8C312.525 72.4267 312.712 71.72 312.712 70.68V50.68C312.712 49.4533 312.512 48.56 312.112 48C311.738 47.44 311.085 47.16 310.152 47.16V46.32C311.005 46.4 311.832 46.44 312.632 46.44C314.952 46.44 316.898 46.2533 318.472 45.88V49.56C319.032 48.3333 319.845 47.4 320.912 46.76C321.978 46.0933 323.232 45.76 324.672 45.76ZM320.992 66.48C322.698 66.48 323.925 65.64 324.672 63.96C325.418 62.2533 325.792 59.7733 325.792 56.52C325.792 53.2667 325.485 50.9467 324.872 49.56C324.285 48.1733 323.432 47.48 322.312 47.48C321.405 47.48 320.592 47.7867 319.872 48.4C319.178 49.0133 318.712 49.8667 318.472 50.96V65.4C319.112 66.12 319.952 66.48 320.992 66.48ZM346.056 64.28C348.243 64.28 350.003 63.2133 351.336 61.08L352.056 61.32C351.523 63.0533 350.563 64.5333 349.176 65.76C347.816 66.96 346.109 67.56 344.056 67.56C341.229 67.56 338.976 66.6667 337.296 64.88C335.643 63.0667 334.816 60.4 334.816 56.88C334.816 53.28 335.709 50.5333 337.496 48.64C339.283 46.72 341.656 45.76 344.616 45.76C349.629 45.76 352.136 48.72 352.136 54.64H340.896C340.869 55.04 340.856 55.6667 340.856 56.52C340.856 58.28 341.096 59.7467 341.576 60.92C342.083 62.0933 342.723 62.9467 343.496 63.48C344.296 64.0133 345.149 64.28 346.056 64.28ZM344.376 46.6C343.416 46.6 342.616 47.2 341.976 48.4C341.363 49.5733 340.976 51.4 340.816 53.88H347.096C347.149 51.7733 346.936 50.04 346.456 48.68C346.003 47.2933 345.309 46.6 344.376 46.6ZM362.572 46.32H367.292V47.12H362.572V63.28C362.572 64.08 362.706 64.6533 362.972 65C363.266 65.32 363.719 65.48 364.332 65.48C365.479 65.48 366.386 64.68 367.052 63.08L367.732 63.44C366.719 66.1867 364.892 67.56 362.252 67.56C360.492 67.56 359.159 67.1067 358.252 66.2C357.692 65.64 357.306 64.9467 357.092 64.12C356.906 63.2667 356.812 62.1067 356.812 60.64V47.12H353.452V46.32H356.812V41.04C359.026 41.04 360.946 40.6133 362.572 39.76V46.32Z" fill="white"/>
<rect width="100" height="100" rx="5" fill="#33A962"/>
<path d="M81.5 50.25C81.5 58.538 78.2076 66.4866 72.3471 72.3471C66.4866 78.2076 58.538 81.5 50.25 81.5L50.25 50.25" fill="#FBFFFA"/>
<path d="M19 81.5L50.25 81.5L50.25 50.25L19 50.25L19 81.5Z" fill="#77C998"/>
<path d="M50.25 19C41.962 19 34.0134 22.2924 28.1529 28.1529C22.2924 34.0134 19 41.962 19 50.25L50.25 50.25" fill="#BEFFD0"/>
</svg>
